<svg width="7" height="9" viewBox="0 0 7 9" fill="none" xmlns="http://www.w3.org/2000/svg">
<path d="M5.28 7.16C5.79 6.49 6.05 5.61 6.05 4.5C6.05 3.39 5.79 2.51 5.28 1.85C4.77 1.18 4.06 0.85 3.15 0.85C2.24 0.85 1.52 1.18 1.01 1.85C0.5 2.51 0.25 3.39 0.25 4.5C0.25 5.61 0.5 6.49 1.01 7.16C1.52 7.82 2.24 8.15 3.15 8.15C4.06 8.15 4.77 7.82 5.28 7.16ZM2.04 4.5C2.04 3.23 2.41 2.59 3.15 2.59C3.89 2.59 4.26 3.23 4.26 4.5C4.26 5.77 3.89 6.41 3.15 6.41C2.41 6.41 2.04 5.77 2.04 4.5Z" fill="white"/>
</svg>
