<svg width="14" height="11" viewBox="0 0 14 11" fill="none" xmlns="http://www.w3.org/2000/svg">
<path d="M2.535 1.745V9.688C2.535 9.78333 2.56533 9.86133 2.626 9.922C2.69533 9.974 2.77333 10 2.86 10C2.94667 10 3.02033 9.974 3.081 9.922C3.14167 9.87 3.172 9.792 3.172 9.688V1.745H4.771C4.86633 1.745 4.94 1.71467 4.992 1.654C5.05267 1.59333 5.083 1.51967 5.083 1.433C5.083 1.21633 4.979 1.108 4.771 1.108H0.949C0.853667 1.108 0.775667 1.14267 0.715 1.212C0.663 1.27267 0.637 1.34633 0.637 1.433C0.637 1.51967 0.663 1.59333 0.715 1.654C0.775667 1.71467 0.853667 1.745 0.949 1.745H2.535ZM12.9669 9.675V1.433C12.9669 1.329 12.9366 1.24233 12.8759 1.173C12.8239 1.10367 12.7589 1.069 12.6809 1.069C12.5596 1.069 12.4556 1.13833 12.3689 1.277L10.1069 4.956L7.84489 1.277C7.76689 1.13833 7.66722 1.069 7.54589 1.069C7.35522 1.069 7.25989 1.19033 7.25989 1.433V9.675C7.25989 9.779 7.29022 9.86133 7.35089 9.922C7.41156 9.974 7.48522 10 7.57189 10C7.78856 10 7.89689 9.89167 7.89689 9.675V2.564L9.83389 5.723C9.91189 5.853 10.0029 5.918 10.1069 5.918C10.2109 5.918 10.3019 5.853 10.3799 5.723L12.3299 2.564V9.675C12.3299 9.779 12.3602 9.86133 12.4209 9.922C12.4902 9.974 12.5639 10 12.6419 10C12.8586 10 12.9669 9.89167 12.9669 9.675Z" fill="black"/>
<path d="M2.535 1.745H3.035V1.245H2.535V1.745ZM2.626 9.922L2.27245 10.2756L2.29757 10.3007L2.326 10.322L2.626 9.922ZM3.081 9.922L3.4064 10.3016L3.4064 10.3016L3.081 9.922ZM3.172 1.745V1.245H2.672V1.745H3.172ZM4.992 1.654L4.63845 1.30045L4.62487 1.31402L4.61237 1.3286L4.992 1.654ZM0.715 1.212L0.338693 0.882729L0.335371 0.886604L0.715 1.212ZM0.715 1.654L0.335371 1.97939L0.347869 1.99397L0.361447 2.00755L0.715 1.654ZM2.035 1.745V9.688H3.035V1.745H2.035ZM2.035 9.688C2.035 9.89979 2.10718 10.1103 2.27245 10.2756L2.97955 9.56845C2.99698 9.58587 3.01315 9.60951 3.02375 9.63678C3.03396 9.66302 3.035 9.68222 3.035 9.688H2.035ZM2.326 10.322C2.48188 10.4389 2.66515 10.5 2.86 10.5V9.5C2.86748 9.5 2.87993 9.50126 2.89461 9.50616C2.9093 9.51105 2.92001 9.51751 2.926 9.522L2.326 10.322ZM2.86 10.5C3.05513 10.5 3.24717 10.4381 3.4064 10.3016L2.7556 9.54237C2.77105 9.52913 2.79112 9.51702 2.81384 9.509C2.83598 9.50119 2.85281 9.5 2.86 9.5V10.5ZM3.4064 10.3016C3.60921 10.1278 3.672 9.89093 3.672 9.688H2.672C2.672 9.69252 2.67123 9.67419 2.68325 9.64328C2.69645 9.60934 2.72046 9.57249 2.7556 9.54237L3.4064 10.3016ZM3.672 9.688V1.745H2.672V9.688H3.672ZM3.172 2.245H4.771V1.245H3.172V2.245ZM4.771 2.245C4.98129 2.245 5.20616 2.17244 5.37163 1.9794L4.61237 1.3286C4.6376 1.29917 4.67097 1.2749 4.70738 1.25991C4.74156 1.24583 4.76593 1.245 4.771 1.245V2.245ZM5.34555 2.00755C5.50105 1.85205 5.583 1.65076 5.583 1.433H4.583C4.583 1.4168 4.5861 1.39155 4.59791 1.36287C4.60976 1.3341 4.62573 1.31316 4.63845 1.30045L5.34555 2.00755ZM5.583 1.433C5.583 1.25258 5.54 1.02455 5.36569 0.842983C5.18773 0.657607 4.95739 0.608 4.771 0.608V1.608C4.79261 1.608 4.71827 1.61256 4.64431 1.53552C4.574 1.46228 4.583 1.39675 4.583 1.433H5.583ZM4.771 0.608H0.949V1.608H4.771V0.608ZM0.949 0.608C0.715215 0.608 0.498032 0.700668 0.338713 0.882746L1.09129 1.54125C1.07768 1.5568 1.05453 1.57648 1.02207 1.59091C0.990044 1.60514 0.963087 1.608 0.949 1.608V0.608ZM0.335371 0.886604C0.198889 1.04583 0.137 1.23787 0.137 1.433H1.137C1.137 1.44019 1.13581 1.45702 1.128 1.47916C1.11998 1.50188 1.10787 1.52195 1.09463 1.53739L0.335371 0.886604ZM0.137 1.433C0.137 1.62813 0.198889 1.82017 0.335371 1.97939L1.09463 1.3286C1.10787 1.34405 1.11998 1.36412 1.128 1.38684C1.13581 1.40898 1.137 1.42581 1.137 1.433H0.137ZM0.361447 2.00755C0.526716 2.17282 0.737209 2.245 0.949 2.245V1.245C0.954782 1.245 0.973983 1.24604 1.00022 1.25625C1.02749 1.26685 1.05113 1.28302 1.06855 1.30045L0.361447 2.00755ZM0.949 2.245H2.535V1.245H0.949V2.245ZM12.8759 1.173L12.4759 1.473L12.4872 1.48807L12.4996 1.50225L12.8759 1.173ZM12.3689 1.277L11.9449 1.01199L11.943 1.01512L12.3689 1.277ZM10.1069 4.956L9.68096 5.21788L10.1069 5.91063L10.5328 5.21788L10.1069 4.956ZM7.84489 1.277L7.4091 1.52213L7.41387 1.5306L7.41896 1.53888L7.84489 1.277ZM7.35089 9.922L6.99734 10.2756L7.01092 10.2891L7.02549 10.3016L7.35089 9.922ZM7.89689 2.564L8.32314 2.30264L7.39689 0.79204V2.564H7.89689ZM9.83389 5.723L10.2627 5.46574L10.2601 5.46164L9.83389 5.723ZM10.3799 5.723L9.95439 5.46034L9.95114 5.46575L10.3799 5.723ZM12.3299 2.564H12.8299V0.802107L11.9044 2.30137L12.3299 2.564ZM12.4209 9.922L12.0673 10.2756L12.0925 10.3007L12.1209 10.322L12.4209 9.922ZM13.4669 9.675V1.433H12.4669V9.675H13.4669ZM13.4669 1.433C13.4669 1.22457 13.4029 1.01604 13.2522 0.843748L12.4996 1.50225C12.488 1.489 12.4782 1.47235 12.4722 1.45518C12.4665 1.43889 12.4669 1.42988 12.4669 1.433H13.4669ZM13.2759 0.873C13.1415 0.693863 12.9354 0.569 12.6809 0.569V1.569C12.6428 1.569 12.597 1.55974 12.5528 1.53618C12.5104 1.51352 12.4861 1.48664 12.4759 1.473L13.2759 0.873ZM12.6809 0.569C12.3294 0.569 12.0874 0.783933 11.9449 1.012L12.7929 1.542C12.8097 1.51511 12.8115 1.52218 12.7892 1.53702C12.7775 1.54488 12.7609 1.55351 12.7402 1.55989C12.7193 1.56631 12.6989 1.569 12.6809 1.569V0.569ZM11.943 1.01512L9.68096 4.69412L10.5328 5.21788L12.7948 1.53888L11.943 1.01512ZM10.5328 4.69412L8.27082 1.01512L7.41896 1.53888L9.68096 5.21788L10.5328 4.69412ZM8.28068 1.03187C8.14585 0.79217 7.90442 0.569 7.54589 0.569V1.569C7.52789 1.569 7.50624 1.56631 7.48316 1.55907C7.46008 1.55183 7.44081 1.54168 7.42611 1.53145C7.39791 1.51183 7.39606 1.49895 7.4091 1.52213L8.28068 1.03187ZM7.54589 0.569C7.33705 0.569 7.10289 0.641527 6.93823 0.851089C6.79161 1.03769 6.75989 1.2598 6.75989 1.433H7.75989C7.75989 1.36353 7.77583 1.40364 7.72455 1.46891C7.69589 1.50539 7.65742 1.53448 7.61604 1.55204C7.57768 1.56831 7.55048 1.569 7.54589 1.569V0.569ZM6.75989 1.433V9.675H7.75989V1.433H6.75989ZM6.75989 9.675C6.75989 9.88159 6.82362 10.1018 6.99734 10.2756L7.70444 9.56845C7.72645 9.59046 7.74255 9.61676 7.75181 9.6419C7.76043 9.66528 7.75989 9.67869 7.75989 9.675H6.75989ZM7.02549 10.3016C7.18472 10.4381 7.37676 10.5 7.57189 10.5V9.5C7.57908 9.5 7.59591 9.50119 7.61805 9.509C7.64077 9.51702 7.66084 9.52913 7.67629 9.54237L7.02549 10.3016ZM7.57189 10.5C7.7573 10.5 7.98819 10.4533 8.16919 10.2723C8.3502 10.0913 8.39689 9.86041 8.39689 9.675H7.39689C7.39689 9.70626 7.38941 9.63787 7.46209 9.5652C7.53476 9.49252 7.60315 9.5 7.57189 9.5V10.5ZM8.39689 9.675V2.564H7.39689V9.675H8.39689ZM7.47064 2.82536L9.40764 5.98436L10.2601 5.46164L8.32314 2.30264L7.47064 2.82536ZM9.40514 5.98025C9.52833 6.18556 9.75438 6.418 10.1069 6.418V5.418C10.134 5.418 10.1622 5.4224 10.1894 5.43147C10.2163 5.44043 10.237 5.4522 10.2513 5.46238C10.2777 5.48124 10.2782 5.49164 10.2626 5.46575L9.40514 5.98025ZM10.1069 6.418C10.4594 6.418 10.6854 6.18556 10.8086 5.98025L9.95114 5.46575C9.93561 5.49164 9.93612 5.48124 9.96252 5.46238C9.97678 5.4522 9.99746 5.44043 10.0243 5.43147C10.0516 5.4224 10.0798 5.418 10.1069 5.418V6.418ZM10.8054 5.98563L12.7554 2.82663L11.9044 2.30137L9.95442 5.46036L10.8054 5.98563ZM11.8299 2.564V9.675H12.8299V2.564H11.8299ZM11.8299 9.675C11.8299 9.88159 11.8936 10.1018 12.0673 10.2756L12.7744 9.56845C12.7965 9.59046 12.8126 9.61676 12.8218 9.6419C12.8304 9.66528 12.8299 9.67869 12.8299 9.675H11.8299ZM12.1209 10.322C12.2667 10.4313 12.4437 10.5 12.6419 10.5V9.5C12.6597 9.5 12.678 9.50317 12.6946 9.509C12.7105 9.51465 12.7193 9.52082 12.7209 9.522L12.1209 10.322ZM12.6419 10.5C12.8273 10.5 13.0582 10.4533 13.2392 10.2723C13.4202 10.0913 13.4669 9.86041 13.4669 9.675H12.4669C12.4669 9.70626 12.4594 9.63787 12.5321 9.5652C12.6048 9.49252 12.6732 9.5 12.6419 9.5V10.5Z" fill="black"/>
</svg>
