<svg width="22" height="23" viewBox="0 0 22 23" fill="none" xmlns="http://www.w3.org/2000/svg">
<path d="M18.8554 3.41612C17.2014 1.79451 14.5272 1.00878 10.906 1.07959C7.25452 1.1514 4.81372 1.7923 3.22465 3.09659C1.68823 4.35756 0.972656 6.20273 0.972656 8.90341V11.6597C0.972656 14.848 2.68111 18.3531 5.94636 18.8835C6.32332 18.9451 6.67843 18.6888 6.73965 18.3118C6.80086 17.9349 6.54494 17.5797 6.16798 17.5185C3.69169 17.1163 2.35549 14.1997 2.35549 11.6597V8.90341C2.35549 5.03091 3.79042 2.60255 10.9331 2.46206C14.1712 2.39789 16.5084 3.05161 17.8872 4.40347C18.9616 5.4571 19.484 6.92899 19.484 8.90341V11.6597C19.484 15.8335 17.6106 17.6744 12.8057 18.2165H9.39857C9.2152 18.2165 9.03931 18.2893 8.90969 18.419L6.50899 20.8197C6.23897 21.0897 6.23897 21.5275 6.50899 21.7976C6.64395 21.9325 6.82096 22.0001 6.99787 22.0001C7.17478 22.0001 7.35178 21.9326 7.48675 21.7976L9.685 19.5993H12.8443C12.8698 19.5993 12.8953 19.5979 12.9207 19.5951C15.6705 19.2896 17.5535 18.574 18.8465 17.3427C20.206 16.048 20.8669 14.1891 20.8669 11.6596V8.90341C20.8669 6.57112 20.1901 4.72493 18.8554 3.41612Z" fill="#C6A464" stroke="#C6A464" stroke-width="0.5"/>
</svg>
