<svg width="12" height="12" viewBox="0 0 12 12" fill="none" xmlns="http://www.w3.org/2000/svg">
<path d="M4.2508 4.20738C3.93561 4.42292 3.85476 4.85317 4.0702 5.16836C4.28565 5.48356 4.71599 5.56431 5.03118 5.34887C5.27908 5.17942 5.85969 4.78246 5.81894 3.98889C5.79313 3.51393 5.36472 2.83579 5.00989 2.3505C4.49086 1.64046 4.04356 1.2128 3.68319 1.08023C3.3467 0.954944 2.99481 0.95227 2.63657 1.07248C1.89454 1.3225 1.35578 1.77432 1.07866 2.37908C0.808824 2.9678 0.814816 3.64438 1.09609 4.33608C1.7604 5.9658 2.69041 7.39261 3.86646 8.58296C5.05063 9.75275 6.47736 10.6828 8.10772 11.3474C8.46053 11.491 8.80956 11.5628 9.14503 11.5628C9.46678 11.5628 9.77607 11.4968 10.0643 11.3647C10.669 11.0875 11.1207 10.5488 11.371 9.80585C11.4909 9.44843 11.4882 9.09673 11.3639 8.76254C11.2304 8.39959 10.8027 7.95238 10.0927 7.43336C9.60736 7.07852 8.92922 6.65012 8.45242 6.62421C7.66051 6.58439 7.26391 7.16398 7.09447 7.41188C6.87893 7.72707 6.9596 8.15732 7.27479 8.37295C7.59008 8.58858 8.02023 8.50782 8.23587 8.19263C8.31109 8.08265 8.35405 8.03268 8.37867 8.01083C8.76678 8.1352 9.87352 8.9483 10.0727 9.2599C10.0776 9.27982 10.0787 9.31015 10.0603 9.36537C9.97308 9.62433 9.80299 9.96331 9.48816 10.1077C9.19325 10.2426 8.85814 10.1599 8.62933 10.0668C7.16841 9.4712 5.89297 8.64104 4.84422 7.60511C3.80239 6.55055 2.97223 5.27512 2.37696 3.81475C2.28367 3.58538 2.20079 3.25009 2.33585 2.95545C2.48012 2.64062 2.81919 2.47044 3.07732 2.38342C3.13245 2.36498 3.16278 2.36599 3.1838 2.37106C3.49549 2.57065 4.30814 3.67674 4.4326 4.06495C4.41066 4.08919 4.36078 4.13225 4.2508 4.20738Z" fill="#C6A464" stroke="#C6A464" stroke-width="0.5"/>
</svg>
