<svg width="8" height="8" viewBox="0 0 8 8" fill="none" xmlns="http://www.w3.org/2000/svg">
<path d="M1.3513 2.59136C1.35139 2.59136 1.35139 2.59136 1.35158 2.59136C2.46568 2.59136 3.51314 3.0253 4.30099 3.81315C5.08893 4.60109 5.52287 5.64873 5.52277 6.76302C5.52277 7.14487 5.83225 7.45444 6.2141 7.45444C6.21419 7.45444 6.21419 7.45444 6.21419 7.45444C6.59604 7.45444 6.90561 7.14496 6.90561 6.76311C6.9057 5.27942 6.32795 3.8845 5.27884 2.83539C4.22982 1.78628 2.83518 1.20862 1.35158 1.20862C1.35149 1.20862 1.35121 1.20862 1.35112 1.20862C0.969269 1.20862 0.65979 1.51819 0.65979 1.90004C0.659882 2.28179 0.969454 2.59136 1.3513 2.59136Z" fill="#C6A464" stroke="#C6A464" stroke-width="0.5"/>
</svg>
