<svg width="12" height="12" viewBox="0 0 12 12" fill="none" xmlns="http://www.w3.org/2000/svg">
<path d="M3.9893 4.25435C3.68646 4.48694 3.62958 4.92097 3.86208 5.2239C4.09467 5.52674 4.52861 5.58372 4.83163 5.35112C5.04358 5.18832 5.60658 4.75595 5.52416 3.98257C5.47336 3.52283 5.02477 2.89197 4.6574 2.44384C4.11984 1.78801 3.66479 1.39962 3.30747 1.29028C2.97264 1.18647 2.62951 1.20288 2.2873 1.33914C1.58335 1.6205 1.08654 2.08661 0.850534 2.68713C0.620707 3.27198 0.662468 3.92643 0.971579 4.58042C1.69314 6.10357 2.65754 7.41902 3.83802 8.49044C3.84263 8.49478 3.84733 8.49902 3.85203 8.50326C5.04929 9.56159 6.46578 10.377 8.06277 10.9272C8.3658 11.0313 8.6632 11.0832 8.94881 11.0832C9.30761 11.0832 9.64788 11.0013 9.95736 10.8381C10.5281 10.5372 10.9365 9.99211 11.1387 9.26031C11.236 8.90557 11.2143 8.56299 11.0751 8.24402C10.9259 7.89877 10.4897 7.48954 9.7786 7.02777C9.29286 6.7123 8.61692 6.33635 8.15238 6.33635C8.15211 6.33635 8.15174 6.33635 8.15137 6.33635C7.37643 6.33948 7.0085 6.94673 6.87003 7.17546C6.67219 7.50208 6.77655 7.92726 7.10318 8.1251C7.42962 8.32293 7.85489 8.21867 8.05282 7.89195C8.10749 7.8016 8.14215 7.75367 8.16391 7.72859C8.55442 7.84198 9.59902 8.52529 9.81308 8.81283C9.81658 8.82813 9.81704 8.85127 9.80552 8.8934C9.73739 9.14001 9.59644 9.46534 9.3124 9.61506C9.04699 9.75482 8.7305 9.69462 8.51247 9.61976C7.09156 9.13024 5.8341 8.40821 4.77485 7.47369C4.77457 7.47341 4.7742 7.47313 4.77392 7.47276C3.72509 6.52248 2.86625 5.35029 2.22139 3.98912C2.12265 3.78003 2.02779 3.47221 2.1375 3.19316C2.25495 2.89428 2.56277 2.71838 2.79969 2.6237C2.84035 2.60748 2.8633 2.60499 2.87999 2.6072C3.18956 2.78835 3.9834 3.75053 4.13929 4.1262C4.1168 4.15045 4.07292 4.19009 3.9893 4.25435Z" fill="#C6A464" stroke="#C6A464" stroke-width="0.5"/>
</svg>
