<svg width="22" height="22" viewBox="0 0 22 22" fill="none" xmlns="http://www.w3.org/2000/svg">
<path d="M10.9512 1C5.46399 1 1 5.46417 1 10.9513C1 13.0988 1.87165 15.0271 2.24649 15.7565C2.421 16.0962 2.83798 16.2298 3.17751 16.0554C3.51713 15.8809 3.65099 15.464 3.47648 15.1244C3.14773 14.4845 2.38293 12.7969 2.38293 10.9512C2.38284 6.22667 6.22658 2.38284 10.9512 2.38284C15.6763 2.38284 19.5203 6.22667 19.5203 10.9513C19.5203 15.6761 15.6763 19.5199 10.9512 19.5199C9.10334 19.5199 7.63504 18.8801 7.08947 18.6049C6.92768 18.5232 6.74025 18.5085 6.56768 18.5637L2.21247 19.9555C1.84879 20.0717 1.64809 20.4608 1.76434 20.8246C1.85819 21.1184 2.13015 21.3057 2.42276 21.3057C2.49254 21.3057 2.56344 21.2951 2.63341 21.2727L6.72578 19.9649C7.58194 20.3623 9.08887 20.9027 10.9512 20.9027C16.4387 20.9027 20.9031 16.4386 20.9031 10.9513C20.9031 5.46417 16.4387 1 10.9512 1Z" fill="#C6A464" stroke="#C6A464" stroke-width="0.5"/>
</svg>
